<?xml version="1.0" encoding="utf-8"?>
<!-- Generator: Adobe Illustrator 23.0.4, SVG Export Plug-In . SVG Version: 6.00 Build 0)  -->
<svg version="1.1" id="Layer_1" xmlns="http://www.w3.org/2000/svg" xmlns:xlink="http://www.w3.org/1999/xlink" x="0px" y="0px"
	 viewBox="0 0 612 792" style="enable-background:new 0 0 612 792;" xml:space="preserve">
<style type="text/css">
	.st0{fill:#FF5A5F;}
</style>
<g>
	<path class="st0" d="M202.88,80.74c32.73,0.56,58.14,13.98,80.79,33.81c7.65,6.7,15.01,13.82,21.92,21.3
		c3.94,4.27,6.12,3.57,9.65-0.3c15.5-16.97,32.48-32.3,53.09-42.45c34.79-17.15,69.19-17.84,101.62,6.07
		c31.98,23.57,44.17,70.06,27.35,108.28c-20.75,47.16-42.44,93.9-64.55,140.41c-17.71,37.25-36.6,73.92-55.07,110.79
		c-9.05,18.07-21,33.21-39.79,41.96c-28.08,13.09-67.63,3.23-83.32-23.77c-18.22-31.36-34.77-63.8-50.78-96.42
		c-22.15-45.13-43.36-90.74-64.5-136.37c-8.9-19.21-18.57-38.16-22.1-59.58c-8.39-50.97,28.97-98.44,76.95-102.77
		C197.74,81.37,201.32,80.91,202.88,80.74z M140.35,169.16c-0.68,0.2-1.36,0.4-2.04,0.6c3.1,10.92,4.88,22.47,9.51,32.67
		c23.85,52.48,48.03,104.8,72.9,156.79c15.59,32.59,32.4,64.59,49.06,96.64c5.29,10.18,13.5,17.88,24.19,22.26
		c22.29,9.14,45.61-0.11,58.54-25.12c23.08-44.66,45.48-89.71,67.46-134.95c16.64-34.25,32.58-68.87,47.97-103.71
		c5.66-12.82,11.7-26.56,12.66-40.24c3.64-51.91-46.67-84.45-93.55-64.14c-22.48,9.74-39.76,26.35-56.46,43.81
		c-3.53,3.69-2.8,6.33,0.05,10.02c18.36,23.83,34.71,48.91,44.1,77.98c6.6,20.44,8.69,41.21,1.88,62.05
		c-9.87,30.25-40.68,48.39-75.59,44.83c-35.17-3.58-61.21-33.17-61.21-69.15c0-22.38,6.05-43.31,16.39-62.52
		c9.44-17.55,20.87-34.04,32.08-50.54c3.89-5.73,5.49-9.75-0.33-14.9c-10.16-8.98-19.41-19.13-30.12-27.35
		c-17.62-13.52-37.05-21.76-60.18-19.89C165.59,106.91,138.36,136.74,140.35,169.16z M310.63,177.73
		c-4.41,5.92-7.68,10.07-10.7,14.4c-14.25,20.44-26.38,41.82-33.14,66.33c-10.92,39.58,13.73,67.89,47.56,65.43
		c25.54-1.85,44.52-23.17,41.81-51.75c-2.21-23.36-12.4-43.56-24.12-63.04C325.82,198.77,318.47,189.14,310.63,177.73z"/>
	<path class="st0" d="M509.79,569.63c14.52-11.71,29.56-12.17,44.71-6.84c19.35,6.81,31.74,25.56,31.8,47.99
		c0.06,23.56-11.14,42.16-33.24,49.78c-12.59,4.34-26.03,5.24-37.93-3.72c-4.82-3.63-6.39-1.36-6.41,3.67
		c-0.05,14.21-0.23,28.42-0.03,42.63c0.07,5.42-1.2,8.05-7.25,7.86c-18.29-0.58-15.32,2.22-15.4-15.45
		c-0.18-41.89,0.03-83.79-0.27-125.68c-0.05-6.5,1.77-9.12,8.13-8.11c1.41,0.23,2.88,0,4.33,0.05
		C503.33,561.98,509.54,559.93,509.79,569.63z M508.66,611.86c0,3.43,0.27,6.89-0.06,10.29c-0.7,7.34,2.77,12,8.6,15.6
		c10.88,6.72,28.53,4.59,37.61-4.48c9.04-9.03,9.53-20.17,6.77-31.43C558.55,589.5,549,584,537.44,581.45
		c-15.88-3.51-28.84,6.83-28.79,23.06C508.67,606.96,508.66,609.41,508.66,611.86z"/>
	<path class="st0" d="M292.35,652.98c-0.44,4.76-0.86,7.28-0.87,9.8c-0.07,13.47-0.22,26.95,0.07,40.42
		c0.12,5.48-1.11,7.99-7.17,7.8c-17.76-0.56-15.24,2.15-15.3-15.7c-0.13-41.89,0.07-83.78-0.16-125.67
		c-0.03-6.04,1.59-8.69,7.68-7.87c2.13,0.29,4.34,0.19,6.49,0.01c4.74-0.38,8.76,0.25,9.34,7.68c13.69-11.68,28.81-12.43,43.36-6.73
		c8.53,3.34,17.02,9.73,22.75,17.01c13.84,17.59,13.25,46.25,0.06,63.85c-7.69,10.26-17.72,17.34-30.58,18.95
		C315.71,664.07,303.58,663.62,292.35,652.98z M291.43,611.5c0.02,0,0.04,0,0.06,0c0,4.89-0.5,9.85,0.18,14.64
		c0.44,3.09,1.92,6.71,4.13,8.73c10.79,9.84,30.68,9.02,40.94-1.32c9.14-9.22,11.18-20.39,7.26-32.43
		c-3.96-12.16-13.5-17.81-25.34-20.11c-14.54-2.82-27.19,7.58-27.22,22.42C291.42,606.12,291.43,608.81,291.43,611.5z"/>
	<path class="st0" d="M112.94,703.08c-27.95,13.87-50.26,10.15-65.84-10.4c-14.73-19.44-13.73-49.24,2.29-68.02
		c15.65-18.33,39.1-21.28,62.47-7.84c4.28-5.48,15.68-8.86,22.04-6.02c1.42,0.63,2.75,3.34,2.76,5.1
		c0.18,29.41,0.11,58.82,0.19,88.23c0.01,3.97-1.38,5.98-5.51,5.64c-2.15-0.18-4.33-0.02-6.5-0.02
		C119.62,709.75,113.65,711.29,112.94,703.08z M114.1,659.76c0.02,0,0.03,0,0.05,0c0-3.92-0.28-7.86,0.07-11.74
		c0.52-5.87-2.3-9.8-6.54-13.03c-10.47-7.97-29.25-6.65-38.83,2.67c-16.31,15.88-9.84,43.91,11.75,50.92
		c20.4,6.62,33.5-2.92,33.5-24.41C114.1,662.7,114.1,661.23,114.1,659.76z"/>
	<path class="st0" d="M402.9,618.08c13.74-11.23,27.96-12.11,42.67-7.32c13.91,4.52,22.1,15.96,22.46,30.79
		c0.5,20.58,0.73,41.16,1.02,61.74c0.03,1.9-0.34,3.81-0.6,6.42c-6.53,0-12.78,0.4-18.91-0.29c-1.48-0.17-3.62-3.92-3.66-6.05
		c-0.31-17.65-0.16-35.3-0.22-52.95c-0.05-11.98-3.75-17.96-12.54-20.55c-9.67-2.85-23.62,1.06-27.99,8.52
		c-1.59,2.72-1.92,6.51-1.95,9.82c-0.17,18.14-0.21,36.29,0.05,54.42c0.08,5.38-1.49,7.39-6.97,7.22
		c-18.49-0.56-15.6,2.57-15.72-15.86c-0.17-25.25,0.12-50.51-0.17-75.75c-0.07-6.16,1.98-8.65,7.89-7.85
		C393.67,611.12,400.89,607.28,402.9,618.08z"/>
	<path class="st0" d="M222.49,614.38c7.06-1.83,15.37-4.28,23.81-6.09c5.3-1.14,8.16,1.33,7.75,7.3c-0.31,4.54-0.06,9.11-0.06,13.02
		c-7.69,0.65-14.18,0.52-20.36,1.86c-10.43,2.25-13.92,7.2-13.94,17.81c-0.03,18.13-0.18,36.27,0.07,54.4
		c0.07,5.45-1.66,7.17-7.05,7.16c-16.93-0.03-16.94,0.18-16.94-16.68c0-24.99,0.19-49.99-0.14-74.98c-0.08-6.26,1.95-8.5,7.82-7.8
		c1.9,0.23,3.93-0.34,5.75,0.1C213.5,611.52,217.72,612.95,222.49,614.38z"/>
	<path class="st0" d="M177.48,709.34c-22.23,1.61-22.23,1.61-22.23-19.9c0-23.53,0.18-47.07-0.12-70.6
		c-0.08-6.19,1.32-8.77,7.97-8.57c17.03,0.51,14.47-1.57,14.55,14.98c0.12,25.98,0.09,51.97,0.1,77.95
		C177.76,705.11,177.59,707.02,177.48,709.34z"/>
	<path class="st0" d="M167.07,561.16c7.66-0.01,15.73,8.11,15.94,16.03c0.2,7.8-7.71,16.31-15.31,16.47
		c-9.38,0.19-17-7.09-16.87-16.14C150.94,569.05,158.76,561.17,167.07,561.16z"/>
</g>
</svg>
